<mxfile host="Electron" agent="Mozilla/5.0 (X11; Linux x86_64) AppleWebKit/537.36 (KHTML, like Gecko) draw.io/24.7.17 Chrome/128.0.6613.36 Electron/32.0.1 Safari/537.36" version="24.7.17">
  <diagram name="Page-1" id="L8DwAw7jtsCSb4LRHkRK">
    <mxGraphModel dx="1145" dy="725" grid="1" gridSize="10" guides="1" tooltips="1" connect="1" arrows="1" fold="1" page="1" pageScale="1" pageWidth="850" pageHeight="1100" math="0" shadow="0">
      <root>
        <mxCell id="0" />
        <mxCell id="1" parent="0" />
        <mxCell id="bX7gCfKeurlGDsHUIOPm-25" value="Managed by the Terraform stack" style="fillColor=none;strokeColor=#5A6C86;dashed=1;verticalAlign=top;fontStyle=0;fontColor=#5A6C86;whiteSpace=wrap;html=1;" parent="1" vertex="1">
          <mxGeometry x="270" y="250" width="210" height="230" as="geometry" />
        </mxCell>
        <mxCell id="bX7gCfKeurlGDsHUIOPm-22" value="" style="edgeStyle=orthogonalEdgeStyle;rounded=0;orthogonalLoop=1;jettySize=auto;html=1;" parent="1" source="bX7gCfKeurlGDsHUIOPm-1" target="bX7gCfKeurlGDsHUIOPm-4" edge="1">
          <mxGeometry relative="1" as="geometry">
            <Array as="points">
              <mxPoint x="410" y="340" />
              <mxPoint x="410" y="357" />
            </Array>
          </mxGeometry>
        </mxCell>
        <mxCell id="bX7gCfKeurlGDsHUIOPm-1" value="SQS queue" style="sketch=0;points=[[0,0,0],[0.25,0,0],[0.5,0,0],[0.75,0,0],[1,0,0],[0,1,0],[0.25,1,0],[0.5,1,0],[0.75,1,0],[1,1,0],[0,0.25,0],[0,0.5,0],[0,0.75,0],[1,0.25,0],[1,0.5,0],[1,0.75,0]];outlineConnect=0;fontColor=#232F3E;fillColor=#E7157B;strokeColor=#ffffff;dashed=0;verticalLabelPosition=bottom;verticalAlign=top;align=center;html=1;fontSize=12;fontStyle=0;aspect=fixed;shape=mxgraph.aws4.resourceIcon;resIcon=mxgraph.aws4.sqs;" parent="1" vertex="1">
          <mxGeometry x="340" y="320" width="40" height="40" as="geometry" />
        </mxCell>
        <mxCell id="bX7gCfKeurlGDsHUIOPm-16" value="" style="edgeStyle=orthogonalEdgeStyle;rounded=0;orthogonalLoop=1;jettySize=auto;html=1;" parent="1" source="bX7gCfKeurlGDsHUIOPm-26" target="bX7gCfKeurlGDsHUIOPm-1" edge="1">
          <mxGeometry relative="1" as="geometry" />
        </mxCell>
        <mxCell id="bX7gCfKeurlGDsHUIOPm-2" value="bucket" style="sketch=0;points=[[0,0,0],[0.25,0,0],[0.5,0,0],[0.75,0,0],[1,0,0],[0,1,0],[0.25,1,0],[0.5,1,0],[0.75,1,0],[1,1,0],[0,0.25,0],[0,0.5,0],[0,0.75,0],[1,0.25,0],[1,0.5,0],[1,0.75,0]];outlineConnect=0;fontColor=#232F3E;fillColor=#7AA116;strokeColor=#ffffff;dashed=0;verticalLabelPosition=bottom;verticalAlign=top;align=center;html=1;fontSize=12;fontStyle=0;aspect=fixed;shape=mxgraph.aws4.resourceIcon;resIcon=mxgraph.aws4.s3;" parent="1" vertex="1">
          <mxGeometry x="210" y="320" width="40" height="40" as="geometry" />
        </mxCell>
        <mxCell id="nytkR4OXUMlbYrDZDNmT-5" style="edgeStyle=orthogonalEdgeStyle;rounded=0;orthogonalLoop=1;jettySize=auto;html=1;exitX=1;exitY=0.5;exitDx=0;exitDy=0;exitPerimeter=0;" edge="1" parent="1" source="bX7gCfKeurlGDsHUIOPm-4">
          <mxGeometry relative="1" as="geometry">
            <mxPoint x="540" y="357" as="targetPoint" />
          </mxGeometry>
        </mxCell>
        <mxCell id="nytkR4OXUMlbYrDZDNmT-7" style="edgeStyle=orthogonalEdgeStyle;rounded=0;orthogonalLoop=1;jettySize=auto;html=1;exitX=0.855;exitY=0.855;exitDx=0;exitDy=0;exitPerimeter=0;startArrow=classic;startFill=1;endArrow=none;endFill=0;" edge="1" parent="1" source="bX7gCfKeurlGDsHUIOPm-4" target="nytkR4OXUMlbYrDZDNmT-1">
          <mxGeometry relative="1" as="geometry" />
        </mxCell>
        <mxCell id="bX7gCfKeurlGDsHUIOPm-4" value="" style="outlineConnect=0;dashed=0;verticalLabelPosition=bottom;verticalAlign=top;align=center;html=1;shape=mxgraph.aws3.lambda_function;fillColor=#F58534;gradientColor=none;" parent="1" vertex="1">
          <mxGeometry x="425" y="335.57" width="40.25" height="42" as="geometry" />
        </mxCell>
        <mxCell id="bX7gCfKeurlGDsHUIOPm-6" value="" style="edgeStyle=orthogonalEdgeStyle;rounded=0;orthogonalLoop=1;jettySize=auto;html=1;" parent="1" source="bX7gCfKeurlGDsHUIOPm-5" target="bX7gCfKeurlGDsHUIOPm-4" edge="1">
          <mxGeometry relative="1" as="geometry" />
        </mxCell>
        <mxCell id="bX7gCfKeurlGDsHUIOPm-7" value="pull image" style="edgeLabel;html=1;align=center;verticalAlign=middle;resizable=0;points=[];" parent="bX7gCfKeurlGDsHUIOPm-6" vertex="1" connectable="0">
          <mxGeometry x="-0.1429" y="1" relative="1" as="geometry">
            <mxPoint as="offset" />
          </mxGeometry>
        </mxCell>
        <mxCell id="bX7gCfKeurlGDsHUIOPm-5" value="Image&lt;div&gt;repo&lt;/div&gt;" style="sketch=0;points=[[0,0,0],[0.25,0,0],[0.5,0,0],[0.75,0,0],[1,0,0],[0,1,0],[0.25,1,0],[0.5,1,0],[0.75,1,0],[1,1,0],[0,0.25,0],[0,0.5,0],[0,0.75,0],[1,0.25,0],[1,0.5,0],[1,0.75,0]];outlineConnect=0;fontColor=#232F3E;fillColor=#ED7100;strokeColor=#ffffff;dashed=0;verticalLabelPosition=bottom;verticalAlign=top;align=center;html=1;fontSize=12;fontStyle=0;aspect=fixed;shape=mxgraph.aws4.resourceIcon;resIcon=mxgraph.aws4.ecr;" parent="1" vertex="1">
          <mxGeometry x="425.25" y="490" width="40" height="40" as="geometry" />
        </mxCell>
        <mxCell id="bX7gCfKeurlGDsHUIOPm-15" value="" style="edgeStyle=orthogonalEdgeStyle;rounded=0;orthogonalLoop=1;jettySize=auto;html=1;" parent="1" source="bX7gCfKeurlGDsHUIOPm-14" target="bX7gCfKeurlGDsHUIOPm-2" edge="1">
          <mxGeometry relative="1" as="geometry" />
        </mxCell>
        <mxCell id="bX7gCfKeurlGDsHUIOPm-14" value="document" style="sketch=0;outlineConnect=0;fontColor=#232F3E;gradientColor=none;fillColor=#232F3D;strokeColor=none;dashed=0;verticalLabelPosition=bottom;verticalAlign=top;align=center;html=1;fontSize=12;fontStyle=0;aspect=fixed;pointerEvents=1;shape=mxgraph.aws4.json_script;" parent="1" vertex="1">
          <mxGeometry x="214.66" y="490" width="30.69" height="42" as="geometry" />
        </mxCell>
        <mxCell id="bX7gCfKeurlGDsHUIOPm-18" value="" style="edgeStyle=orthogonalEdgeStyle;rounded=0;orthogonalLoop=1;jettySize=auto;html=1;" parent="1" source="bX7gCfKeurlGDsHUIOPm-17" target="bX7gCfKeurlGDsHUIOPm-1" edge="1">
          <mxGeometry relative="1" as="geometry" />
        </mxCell>
        <mxCell id="bX7gCfKeurlGDsHUIOPm-17" value="" style="sketch=0;outlineConnect=0;fontColor=#232F3E;gradientColor=none;fillColor=#DD344C;strokeColor=none;dashed=0;verticalLabelPosition=bottom;verticalAlign=top;align=center;html=1;fontSize=12;fontStyle=0;aspect=fixed;pointerEvents=1;shape=mxgraph.aws4.role;" parent="1" vertex="1">
          <mxGeometry x="342.27" y="280" width="35.46" height="20" as="geometry" />
        </mxCell>
        <mxCell id="bX7gCfKeurlGDsHUIOPm-21" value="" style="edgeStyle=orthogonalEdgeStyle;rounded=0;orthogonalLoop=1;jettySize=auto;html=1;" parent="1" source="bX7gCfKeurlGDsHUIOPm-19" edge="1" target="bX7gCfKeurlGDsHUIOPm-4">
          <mxGeometry relative="1" as="geometry">
            <mxPoint x="445.25" y="320" as="targetPoint" />
          </mxGeometry>
        </mxCell>
        <mxCell id="bX7gCfKeurlGDsHUIOPm-19" value="" style="sketch=0;outlineConnect=0;fontColor=#232F3E;gradientColor=none;fillColor=#DD344C;strokeColor=none;dashed=0;verticalLabelPosition=bottom;verticalAlign=top;align=center;html=1;fontSize=12;fontStyle=0;aspect=fixed;pointerEvents=1;shape=mxgraph.aws4.role;" parent="1" vertex="1">
          <mxGeometry x="427.4" y="280" width="35.46" height="20" as="geometry" />
        </mxCell>
        <mxCell id="bX7gCfKeurlGDsHUIOPm-23" value="SQS DLQ&lt;div&gt;(Opt)&lt;/div&gt;" style="sketch=0;points=[[0,0,0],[0.25,0,0],[0.5,0,0],[0.75,0,0],[1,0,0],[0,1,0],[0.25,1,0],[0.5,1,0],[0.75,1,0],[1,1,0],[0,0.25,0],[0,0.5,0],[0,0.75,0],[1,0.25,0],[1,0.5,0],[1,0.75,0]];outlineConnect=0;fontColor=#232F3E;fillColor=#E7157B;strokeColor=#ffffff;dashed=0;verticalLabelPosition=bottom;verticalAlign=top;align=center;html=1;fontSize=12;fontStyle=0;aspect=fixed;shape=mxgraph.aws4.resourceIcon;resIcon=mxgraph.aws4.sqs;" parent="1" vertex="1">
          <mxGeometry x="340" y="400" width="40" height="40" as="geometry" />
        </mxCell>
        <mxCell id="bX7gCfKeurlGDsHUIOPm-24" style="edgeStyle=orthogonalEdgeStyle;rounded=0;orthogonalLoop=1;jettySize=auto;html=1;exitX=0.5;exitY=1;exitDx=0;exitDy=0;exitPerimeter=0;entryX=0.5;entryY=0;entryDx=0;entryDy=0;entryPerimeter=0;" parent="1" source="bX7gCfKeurlGDsHUIOPm-1" target="bX7gCfKeurlGDsHUIOPm-23" edge="1">
          <mxGeometry relative="1" as="geometry" />
        </mxCell>
        <mxCell id="bX7gCfKeurlGDsHUIOPm-27" value="" style="edgeStyle=orthogonalEdgeStyle;rounded=0;orthogonalLoop=1;jettySize=auto;html=1;" parent="1" source="bX7gCfKeurlGDsHUIOPm-2" target="bX7gCfKeurlGDsHUIOPm-26" edge="1">
          <mxGeometry relative="1" as="geometry">
            <mxPoint x="250" y="340" as="sourcePoint" />
            <mxPoint x="340" y="340" as="targetPoint" />
          </mxGeometry>
        </mxCell>
        <mxCell id="bX7gCfKeurlGDsHUIOPm-26" value="S3&lt;div&gt;event&lt;/div&gt;" style="sketch=0;outlineConnect=0;fontColor=#232F3E;gradientColor=none;fillColor=#E7157B;strokeColor=none;dashed=0;verticalLabelPosition=bottom;verticalAlign=top;align=center;html=1;fontSize=12;fontStyle=0;aspect=fixed;pointerEvents=1;shape=mxgraph.aws4.event;" parent="1" vertex="1">
          <mxGeometry x="277" y="320" width="40" height="40" as="geometry" />
        </mxCell>
        <mxCell id="nytkR4OXUMlbYrDZDNmT-1" value="&lt;div&gt;qdrant url&lt;/div&gt;&lt;div&gt;qdrant api key&lt;/div&gt;" style="sketch=0;outlineConnect=0;fontColor=#232F3E;gradientColor=none;fillColor=#E7157B;strokeColor=none;dashed=0;verticalLabelPosition=bottom;verticalAlign=top;align=center;html=1;fontSize=12;fontStyle=0;aspect=fixed;pointerEvents=1;shape=mxgraph.aws4.parameter_store;" vertex="1" parent="1">
          <mxGeometry x="499.99999999999994" y="490" width="38.46" height="40" as="geometry" />
        </mxCell>
        <mxCell id="nytkR4OXUMlbYrDZDNmT-4" value="" style="shape=image;imageAspect=0;aspect=fixed;verticalLabelPosition=bottom;verticalAlign=top;image=https://qdrant.tech/img/brand-resources-logos/logomark.svg;recursiveResize=0;expand=0;" vertex="1" parent="1">
          <mxGeometry x="538.46" y="330" width="183.74" height="210" as="geometry" />
        </mxCell>
        <mxCell id="nytkR4OXUMlbYrDZDNmT-6" style="edgeStyle=orthogonalEdgeStyle;rounded=0;orthogonalLoop=1;jettySize=auto;html=1;exitX=0.25;exitY=0;exitDx=0;exitDy=0;exitPerimeter=0;entryX=0.25;entryY=1;entryDx=0;entryDy=0;entryPerimeter=0;dashed=1;" edge="1" parent="1" source="bX7gCfKeurlGDsHUIOPm-23" target="bX7gCfKeurlGDsHUIOPm-1">
          <mxGeometry relative="1" as="geometry" />
        </mxCell>
      </root>
    </mxGraphModel>
  </diagram>
</mxfile>
